<?xml version="1.0" encoding="UTF-8"?>
<svg version="1.1" xmlns="http://www.w3.org/2000/svg" width="1024" height="1024">
<path d="M0 0 C337.92 0 675.84 0 1024 0 C1024 337.92 1024 675.84 1024 1024 C686.08 1024 348.16 1024 0 1024 C0 686.08 0 348.16 0 0 Z " fill="#14120B" transform="translate(0,0)"/>
<path d="M0 0 C2.80703458 1.62905441 5.59125847 3.29377915 8.37109375 4.96875 C14.24486084 8.50595123 20.18666763 11.9232359 26.12890625 15.34375 C27.24652344 15.98803955 28.36414063 16.6323291 29.515625 17.29614258 C36.33529763 21.22506029 43.16603494 25.13411628 50.00390625 29.03125 C58.39818496 33.81639826 66.74930164 38.67288129 75.09082031 43.54931641 C85.72718935 49.76433945 96.39996443 55.91564909 107.07470703 62.06445312 C110.40504877 63.98381662 113.73399773 65.90557353 117.0625 67.828125 C127.03033941 73.58488159 137.00282695 79.33240676 147.00390625 85.03125 C155.39822938 89.81631897 163.74930272 94.67288192 172.09082031 99.54931641 C182.72718935 105.76433945 193.39996443 111.91564909 204.07470703 118.06445312 C207.40504877 119.98381662 210.73399773 121.90557353 214.0625 123.828125 C224.03034001 129.58488194 234.00287474 135.3323222 244.00390625 141.03125 C251.7153629 145.42787104 259.39812336 149.87225704 267.06640625 154.34375 C268.5361792 155.20045288 268.5361792 155.20045288 270.03564453 156.07446289 C271.9121512 157.17061622 273.78688424 158.26981252 275.65966797 159.37231445 C277.48368689 160.44317634 279.31356157 161.50412149 281.14892578 162.55541992 C285.62735441 165.15610329 289.49834808 167.52758047 292.87890625 171.53125 C293.50796875 172.25441406 294.13703125 172.97757813 294.78515625 173.72265625 C297.86864151 178.06825435 298.6292905 181.78577161 298.63896847 187.06898785 C298.64603406 188.30241474 298.65309965 189.53584163 298.66037935 190.8066451 C298.65812807 192.17242253 298.65568158 193.53819966 298.65306091 194.90397644 C298.65751373 196.35722212 298.66282792 197.81046538 298.66892964 199.26370507 C298.68311501 203.25787646 298.68477283 207.25197004 298.68433273 211.24616301 C298.68598048 215.55375315 298.69904625 219.8613112 298.71052551 224.16888428 C298.73337844 233.58838025 298.74129651 243.00785371 298.74635196 252.42737365 C298.74960878 258.30958565 298.75613119 264.1917911 298.76335335 270.0739994 C298.78292002 286.36191059 298.79932371 302.64981568 298.80222988 318.93773937 C298.80241745 319.98011492 298.80260502 321.02249046 298.80279827 322.09645315 C298.80316452 324.20958539 298.80352822 326.32271763 298.80388939 328.43584987 C298.8040722 329.48480506 298.80425501 330.53376024 298.80444336 331.61450195 C298.80471418 333.18985656 298.80471418 333.18985656 298.80499048 334.79703651 C298.80853182 351.8131507 298.83555143 368.82913831 298.87294125 385.84520861 C298.91102648 403.31767371 298.93038738 420.79007602 298.93068939 438.26258355 C298.93127393 448.07182397 298.93976356 457.88091342 298.96868706 467.69011497 C298.99320386 476.04321608 299.00048184 484.39611115 298.98543953 492.74923851 C298.97827172 497.00979852 298.97912226 501.26995171 299.00185013 505.53046608 C299.02247807 509.43480741 299.01980482 513.33843016 298.99897528 517.24276403 C298.99548761 518.65126773 299.00035984 520.05982366 299.01467972 521.46825888 C299.10487453 530.95472928 298.11718743 538.68778571 291.5920009 545.96031255 C286.05569398 551.32755508 279.07333343 554.82825367 272.37890625 558.53125 C270.50071434 559.58445098 268.62445826 560.64104932 266.7481842 561.69766235 C265.47759925 562.41278314 264.20638762 563.12679161 262.93455505 563.83969116 C256.89448181 567.22732279 250.91384077 570.7133828 244.94140625 574.21875 C236.76049391 579.00864192 228.54938798 583.74079633 220.31079102 588.43066406 C213.64118759 592.2332377 207.00588256 596.09243435 200.37890625 599.96875 C192.05019221 604.84046268 183.69391411 609.65922083 175.30810547 614.43188477 C168.67939938 618.2105343 162.08807072 622.05060568 155.50390625 625.90625 C146.5619227 631.14121497 137.56690601 636.2730277 128.53613281 641.35302734 C122.22275153 644.91015306 115.95871779 648.54012804 109.72436523 652.23364258 C104.18145883 655.51208906 98.59896303 658.71772396 93.00390625 661.90625 C80.148973 669.23345713 67.34663408 676.64829738 54.5715332 684.11376953 C45.18812325 689.59669797 35.78805341 695.045979 26.3371582 700.41186523 C21.56148645 703.12909687 16.81265242 705.88584454 12.0859375 708.6875 C11.02117187 709.3165625 9.95640625 709.945625 8.859375 710.59375 C6.81026348 711.80654104 4.76444758 713.0249252 2.72265625 714.25 C-13.04163599 723.56624384 -13.04163599 723.56624384 -21.62109375 723.46875 C-22.52859375 723.4790625 -23.43609375 723.489375 -24.37109375 723.5 C-34.02766108 721.92152265 -42.41884746 716.44883403 -50.74609375 711.59375 C-51.9866663 710.87706233 -53.22755749 710.16092596 -54.46875 709.4453125 C-58.19167145 707.29582224 -61.90727639 705.13392274 -65.62109375 702.96875 C-66.67264648 702.35612305 -67.72419922 701.74349609 -68.80761719 701.11230469 C-72.71999991 698.83125153 -76.63121529 696.54823549 -80.53955078 694.26025391 C-88.20411987 689.77796834 -95.90674266 685.36449691 -103.62109375 680.96875 C-113.34233881 675.42889067 -123.03004243 669.83500068 -132.68798828 664.18530273 C-143.21194 658.03108258 -153.77489512 651.94505004 -164.33886719 645.85986328 C-169.76769317 642.73194852 -175.19428656 639.60016552 -180.62109375 636.46875 C-182.78774958 635.21873121 -184.95441625 633.96873122 -187.12109375 632.71875 C-217.45442708 615.21875 -247.78776042 597.71875 -278.12109375 580.21875 C-279.73189819 579.28953735 -279.73189819 579.28953735 -281.37524414 578.34155273 C-283.52830412 577.09927194 -285.68113853 575.85660012 -287.83374023 574.61352539 C-292.86210836 571.71038888 -297.89249189 568.81096133 -302.93130493 565.92599487 C-304.7054192 564.90997816 -306.47879294 563.89268072 -308.25195312 562.875 C-310.46924689 561.60292708 -312.6879045 560.33322715 -314.90820312 559.06640625 C-338.43371905 545.55462301 -338.43371905 545.55462301 -341.62109375 533.96875 C-342.06915012 529.24295905 -342.03085084 524.52200742 -342.0087738 519.77955627 C-342.01294903 518.32315773 -342.01842758 516.86676243 -342.02509362 515.41037315 C-342.03954225 511.41681292 -342.03530536 507.42345916 -342.0279268 503.42988765 C-342.02319601 499.11964093 -342.03570418 494.80943893 -342.04594421 490.49920654 C-342.06313909 482.05853645 -342.06397082 473.61794078 -342.05873131 465.17725772 C-342.05468978 458.31678716 -342.05613297 451.45633858 -342.06147957 444.59586906 C-342.06222799 443.61942476 -342.06297641 442.64298045 -342.06374751 441.63694693 C-342.06527899 439.65330251 -342.06681734 437.6696581 -342.06836248 435.68601369 C-342.08208993 417.0845144 -342.07664803 398.48305716 -342.06517727 379.88155883 C-342.05524389 362.86423565 -342.06818695 345.84702119 -342.09211146 328.82971478 C-342.116494 311.35493146 -342.12611246 293.88019878 -342.11945873 276.40539879 C-342.11596473 266.59516516 -342.11821058 256.78501516 -342.13570976 246.97479439 C-342.15042113 238.62389192 -342.15108109 230.27313197 -342.13363885 221.92223234 C-342.12511783 217.66196775 -342.12300613 213.40195787 -342.13829041 209.14170647 C-342.1521147 205.24009185 -342.14740377 201.33895069 -342.12805117 197.43736362 C-342.12428389 196.0276162 -342.12723418 194.61783107 -342.13766282 193.20811719 C-342.19976793 184.16859339 -341.53141648 178.24820755 -336.06616211 170.86938477 C-331.30037507 166.16845889 -326.05977076 163.05879569 -320.18359375 159.90625 C-318.11497503 158.7672769 -316.04729484 157.62659786 -313.98046875 156.484375 C-312.39588867 155.61329102 -312.39588867 155.61329102 -310.77929688 154.72460938 C-305.78424596 151.9475217 -300.85999011 149.05284764 -295.93359375 146.15625 C-287.19574544 141.03510111 -278.42093469 135.98227531 -269.62109375 130.96875 C-259.89975276 125.42906101 -250.21214283 119.83499937 -240.55419922 114.18530273 C-230.0302475 108.03108258 -219.46729238 101.94505004 -208.90332031 95.85986328 C-203.47449433 92.73194852 -198.04790094 89.60016552 -192.62109375 86.46875 C-190.45443792 85.21873121 -188.28777125 83.96873122 -186.12109375 82.71875 C-185.04859375 82.1 -183.97609375 81.48125 -182.87109375 80.84375 C-153.62109375 63.96875 -124.37109375 47.09375 -95.12109375 30.21875 C-94.04778809 29.5995166 -92.97448242 28.9802832 -91.86865234 28.34228516 C-89.71018877 27.09705516 -87.55166052 25.85193728 -85.39306641 24.60693359 C-79.85034634 21.40988663 -74.30889367 18.21067405 -68.76953125 15.0078125 C-63.34470724 11.87180452 -57.91683903 8.74115239 -52.48535156 5.61669922 C-50.66627444 4.57009416 -48.84783898 3.52237244 -47.03027344 2.47314453 C-44.81371979 1.1952011 -42.59329507 -0.07566038 -40.37109375 -1.34375 C-39.45142822 -1.87621338 -39.45142822 -1.87621338 -38.51318359 -2.41943359 C-24.75312562 -10.21927344 -13.16104811 -7.47904865 0 0 Z " fill="#ECEBEB" transform="translate(533.62109375,154.03125)"/>
<path d="M0 0 C0.90824461 0.00091193 1.81648922 0.00182386 2.75225639 0.00276342 C3.71199769 -0.000188 4.67173898 -0.00313943 5.66056335 -0.00618029 C8.91940668 -0.01493398 12.17821478 -0.01645758 15.43706894 -0.01805815 C17.77995542 -0.02278485 20.12284108 -0.02793517 22.46572578 -0.03347579 C28.2570815 -0.04596626 34.04843018 -0.05368328 39.83979627 -0.05937457 C46.77250654 -0.06641976 53.70520337 -0.07917825 60.63790507 -0.09192376 C78.19452211 -0.12381392 95.75114806 -0.14361642 113.30778438 -0.16120929 C118.06148043 -0.16597497 122.8151762 -0.17098399 127.56887197 -0.17601451 C157.06160555 -0.20705935 186.55434136 -0.23368511 216.04708672 -0.2504333 C222.88353225 -0.25437072 229.71997774 -0.25838252 236.55642319 -0.26245818 C237.83047413 -0.26321068 237.83047413 -0.26321068 239.13026347 -0.26397838 C266.6722257 -0.28039851 294.21409912 -0.31885623 321.75601765 -0.36974528 C350.05701318 -0.42194174 378.35796142 -0.45474428 406.65900608 -0.46201083 C410.65457538 -0.46303947 414.6501446 -0.4642758 418.64571381 -0.46563086 C419.43210797 -0.4658889 420.21850213 -0.46614693 421.02872642 -0.46641279 C433.69631894 -0.47111204 446.36379464 -0.49606479 459.03134341 -0.52838229 C471.76029194 -0.56038335 484.48910865 -0.57040269 497.21809264 -0.55795034 C504.11715515 -0.5517977 511.01588261 -0.55532266 517.91488838 -0.58611998 C524.22659616 -0.61335004 530.53767368 -0.61308335 536.84939466 -0.59060953 C539.13683202 -0.58736948 541.42431059 -0.59435366 543.711679 -0.61240675 C546.81444483 -0.63541729 549.91493783 -0.6216488 553.01765251 -0.59850916 C554.35894893 -0.62172351 554.35894893 -0.62172351 555.72734225 -0.64540684 C561.34885819 -0.55246911 564.34585342 0.68669055 568.4879887 4.5074614 C570.27541895 6.80065042 570.7196863 8.89984927 570.44265366 11.77636018 C568.85246724 17.30833677 565.65469469 22.12570216 562.69997787 27.01757112 C561.9671997 28.25987338 561.23618926 29.50321987 560.50686264 30.74755159 C559.00507263 33.30531752 557.4947463 35.85772299 555.97732162 38.406243 C552.6573972 43.99151916 549.43500308 49.63286596 546.19997787 55.26757112 C544.95980611 57.41642065 543.71892007 59.56485811 542.47732162 61.71288362 C538.73596132 68.18767134 534.99890305 74.66493455 531.26247787 81.14257112 C530.01249666 83.30924863 528.76249666 85.4759153 527.51247787 87.64257112 C526.89372787 88.71507112 526.27497787 89.78757112 525.63747787 90.89257112 C523.76247787 94.14257112 521.88747787 97.39257112 520.01247787 100.64257112 C519.39364731 101.71523225 518.77481674 102.78789339 518.13723373 103.8930594 C516.88812269 106.05814183 515.63893658 108.22318094 514.38967514 110.38817659 C511.25045478 115.82872818 508.11257225 121.27004328 504.97732162 126.71288362 C498.95500459 137.16463312 492.9157845 147.6055666 486.82497787 158.01757112 C481.74972664 166.69519354 476.73989021 175.4086268 471.76247787 184.14257112 C466.22246058 193.86372729 460.62872979 203.5515177 454.97903061 213.20946565 C448.82481046 223.73341737 442.73877791 234.2963725 436.65359116 244.86034456 C433.52567639 250.28917054 430.3938934 255.71576393 427.26247787 261.14257112 C426.01245909 263.30922695 424.76245909 265.47589362 423.51247787 267.64257112 C391.01247787 323.97590445 358.51247787 380.30923779 326.01247787 436.64257112 C325.08411118 438.25180452 325.08411118 438.25180452 324.13698959 439.89354768 C322.88876753 442.05704588 321.64039548 444.22045756 320.39187241 446.38378206 C317.23842531 451.84822129 314.08771692 457.31420758 310.94216537 462.78319612 C304.81797229 473.42634053 298.67259823 484.05660255 292.44997787 494.64257112 C291.9045433 495.57488557 291.35910873 496.50720003 290.79714584 497.46776643 C290.04328598 498.7453885 290.04328598 498.7453885 289.27419662 500.04882112 C288.83551254 500.79454378 288.39682846 501.54026643 287.94485092 502.30858675 C286.76247787 504.14257112 286.76247787 504.14257112 284.76247787 506.14257112 C281.22676359 505.60685684 281.22676359 505.60685684 279.76247787 504.14257112 C279.66461219 502.4089732 279.63768734 500.6713477 279.63777924 498.9349896 C279.63538829 497.79886179 279.63299734 496.66273398 279.63053393 495.49217805 C279.63296643 494.22820776 279.63539892 492.96423747 279.63790512 491.66196504 C279.63691984 490.31799342 279.63548351 488.97402206 279.63363194 487.63005134 C279.63056201 484.69645082 279.63068862 481.76287297 279.63318825 478.82927194 C279.63723428 474.05684747 279.63448576 469.28444087 279.6308403 464.51201692 C279.62674382 458.48190767 279.62451054 452.4518024 279.62442431 446.42169175 C279.62422186 434.56858807 279.61177844 422.71552546 279.5948143 410.86243501 C279.59220842 408.99793226 279.58960961 407.13342949 279.58701777 405.26892671 C279.58307915 402.44278264 279.57913266 399.61663859 279.57515655 396.79049457 C279.56019911 386.12603538 279.5465809 375.46157492 279.53445053 364.79711214 C279.53278019 363.33421157 279.53278019 363.33421157 279.5310761 361.84175745 C279.51351056 346.04626233 279.51063123 330.25079283 279.51230094 314.45528957 C279.51357998 298.24627738 279.49584253 282.03736061 279.46128297 265.82838508 C279.44062513 255.8269647 279.43530151 245.82577273 279.44961128 235.8243402 C279.45807065 228.96733753 279.44833804 222.1105124 279.42430177 215.25354721 C279.41099364 211.29706069 279.40580676 207.34099997 279.42242241 203.38451639 C279.437475 199.76010213 279.42943073 196.1364898 279.40325287 192.51214562 C279.39528456 190.58448319 279.41186147 188.65676718 279.42939544 186.72916803 C279.35140519 179.70756712 278.69626851 174.42009111 273.76247787 169.14257112 C271.12276353 167.12093514 268.39378038 165.55708947 265.44997787 164.01757112 C263.74223341 163.0774593 262.0352376 162.13598657 260.32888412 161.19335237 C259.42541245 160.70173616 258.52194077 160.21011995 257.59109116 159.70360628 C252.63362885 156.96771693 247.7677468 154.07563265 242.88747787 151.20507112 C234.51945246 146.31238193 226.12056755 141.47739039 217.69655991 136.68187776 C210.00008611 132.29394468 202.35109338 127.82658887 194.70388412 123.35350862 C187.39287201 119.08169459 180.05076022 114.86775404 172.69167709 110.67943636 C166.062971 106.90078682 159.47164234 103.06071544 152.88747787 99.20507112 C143.94549432 93.97010615 134.95047764 88.83829343 125.91970444 83.75829378 C119.60632316 80.20116806 113.34228941 76.57119308 107.10793686 72.87767854 C101.56503046 69.59923206 95.98253465 66.39359716 90.38747787 63.20507112 C78.54639818 56.45575225 66.74496662 49.64025504 54.97732162 42.76366487 C52.94738626 41.57744547 50.91743816 40.39124787 48.88747787 39.20507112 C47.87209946 38.61169954 46.85672104 38.01832796 45.81057358 37.40697542 C39.27443478 33.59279545 32.71548231 29.82150562 26.13747787 26.08007112 C18.55913126 21.7666693 11.02275147 17.38597397 3.51247787 12.95507112 C2.55260971 12.38973665 1.59274155 11.82440218 0.60378647 11.24193636 C-0.27712662 10.72059114 -1.1580397 10.19924593 -2.06564713 9.66210237 C-2.84843033 9.19908723 -3.63121353 8.7360721 -4.43771744 8.2590262 C-6.23752213 7.14257112 -6.23752213 7.14257112 -7.23752213 6.14257112 C-7.36252213 3.64257112 -7.36252213 3.64257112 -7.23752213 1.14257112 C-5.33590467 -0.75904634 -2.53144853 0.01173999 0 0 Z " fill="#14120B" transform="translate(232.23752212524414,339.85742887854576)"/>
</svg>
